<?xml version="1.0" encoding="UTF-8" standalone="no"?>
<!-- Created with Inkscape (http://www.inkscape.org/) -->

<svg
   xmlns:dc="http://purl.org/dc/elements/1.1/"
   xmlns:cc="http://creativecommons.org/ns#"
   xmlns:rdf="http://www.w3.org/1999/02/22-rdf-syntax-ns#"
   xmlns:svg="http://www.w3.org/2000/svg"
   xmlns="http://www.w3.org/2000/svg"
   xmlns:sodipodi="http://sodipodi.sourceforge.net/DTD/sodipodi-0.dtd"
   xmlns:inkscape="http://www.inkscape.org/namespaces/inkscape"
   width="400"
   height="87.283386"
   viewBox="0 0 105.83333 23.09373"
   version="1.1"
   id="svg8"
   inkscape:version="0.92.3 (2405546, 2018-03-11)"
   sodipodi:docname="expring_banner.svg"
   inkscape:export-filename="/home/benjamin/IdeaProjects/expring/src/main/resources/static/img/social_banner.png"
   inkscape:export-xdpi="96"
   inkscape:export-ydpi="96">
  <defs
     id="defs2" />
  <sodipodi:namedview
     id="base"
     pagecolor="#ffffff"
     bordercolor="#000000"
     borderopacity="1"
     inkscape:pageopacity="0"
     inkscape:pageshadow="2"
     inkscape:zoom="4"
     inkscape:cx="206.59435"
     inkscape:cy="19.315092"
     inkscape:document-units="px"
     inkscape:current-layer="layer1"
     showgrid="false"
     units="px"
     inkscape:window-width="1853"
     inkscape:window-height="1025"
     inkscape:window-x="1987"
     inkscape:window-y="27"
     inkscape:window-maximized="1"
     inkscape:snap-global="true"
     inkscape:snap-bbox="true"
     inkscape:snap-bbox-midpoints="true"
     fit-margin-top="0"
     fit-margin-left="0"
     fit-margin-right="0"
     fit-margin-bottom="0"
     inkscape:bbox-nodes="false"
     inkscape:snap-page="true"
     inkscape:snap-bbox-edge-midpoints="true" />
  <metadata
     id="metadata5">
    <rdf:RDF>
      <cc:Work
         rdf:about="">
        <dc:format>image/svg+xml</dc:format>
        <dc:type
           rdf:resource="http://purl.org/dc/dcmitype/StillImage" />
        <dc:title></dc:title>
      </cc:Work>
    </rdf:RDF>
  </metadata>
  <g
     inkscape:label="Layer 1"
     inkscape:groupmode="layer"
     id="layer1"
     transform="translate(-172.24302,-314.0148)">
    <path
       cx="13.276414"
       cy="283.58182"
       r="8.1737347"
       id="path844-5"
       style="fill:#000000;fill-opacity:1;stroke:none;stroke-width:0.23047318;stroke-miterlimit:4;stroke-dasharray:none;stroke-opacity:1"
       d=""
       inkscape:connector-curvature="0" />
    <path
       style="fill:#363c42;fill-opacity:1;stroke:none;stroke-width:0.14126581;stroke-miterlimit:4;stroke-dasharray:none;stroke-opacity:1"
       d="m 248.32157,314.0148 c -0.38977,0 -0.73078,0.14609 -1.02311,0.43841 -0.27608,0.27608 -0.41404,0.62524 -0.41404,1.04749 0,0.38977 0.13796,0.72285 0.41404,0.99894 0.27609,0.27609 0.6171,0.41404 1.02311,0.41404 0.40601,0 0.74702,-0.13795 1.02311,-0.41404 0.29233,-0.29233 0.43862,-0.62541 0.43862,-0.99894 0,-0.43849 -0.13815,-0.79578 -0.41424,-1.07187 -0.25984,-0.27608 -0.609,-0.41403 -1.04749,-0.41403 z m -66.83617,2.83428 v 8.18301 h 8.18259 a 8.1826957,8.1826957 0 0 0 -8.18259,-8.18301 z m -1.05979,1.05978 a 8.1826957,8.1826957 0 0 0 -7.90378,6.06469 8.1826957,8.1826957 0 0 0 3.81259,9.20424 8.1826957,8.1826957 0 0 0 9.8775,-1.30024 l -2.0481,-2.0481 c -0.55146,0.71257 -1.18375,1.23108 -1.89702,1.55529 -0.69833,0.30857 -1.5104,0.4628 -2.43609,0.4628 -1.12058,0 -2.07038,-0.2517 -2.84991,-0.75514 -0.76329,-0.51969 -1.33973,-1.2178 -1.7295,-2.09477 -0.38976,-0.87698 -0.58469,-1.85955 -0.58469,-2.94764 0,-1.05562 0.20286,-2.02191 0.60886,-2.89888 0.42225,-0.87698 1.01497,-1.5755 1.77826,-2.09519 0.76329,-0.53593 1.64819,-0.8037 2.65508,-0.8037 0.2501,0 0.48857,0.0143 0.7168,0.0408 z m 21.87226,1.75763 c -1.00689,0 -1.892,0.26797 -2.65529,0.8039 -0.7633,0.51969 -1.35601,1.218 -1.77825,2.09498 -0.40601,0.87698 -0.60908,1.84326 -0.60908,2.89888 0,1.0881 0.19493,2.07067 0.5847,2.94764 0.38976,0.87698 0.96641,1.57529 1.7297,2.09498 0.77953,0.50345 1.72954,0.75514 2.85012,0.75514 0.9257,0 1.73775,-0.15423 2.43609,-0.46279 0.71457,-0.32481 1.34777,-0.84468 1.89994,-1.55926 -0.0162,-0.12992 -0.0893,-0.26787 -0.21921,-0.41403 -0.11368,-0.14617 -0.23535,-0.25991 -0.36528,-0.34111 -0.38977,0.45473 -0.84453,0.80389 -1.36421,1.04749 -0.51969,0.24361 -1.05564,0.36549 -1.60781,0.36549 -1.18554,0 -2.05436,-0.38986 -2.60653,-1.16939 -0.53593,-0.79577 -0.8446,-1.81883 -0.9258,-3.06933 1.68899,-0.0812 3.96258,-0.1219 6.82087,-0.1219 0.17864,-0.22736 0.30053,-0.50327 0.36549,-0.82807 -0.11368,-1.52659 -0.53589,-2.74478 -1.2667,-3.65423 -0.71457,-0.9257 -1.81088,-1.38839 -3.28875,-1.38839 z m 22.60886,0 c -0.37353,0.19488 -0.88506,0.37353 -1.53467,0.53593 -0.64961,0.1624 -1.22625,0.25987 -1.7297,0.29235 -0.14616,0.22737 -0.21921,0.52769 -0.21921,0.90121 0.51969,0.0162 0.90955,0.0893 1.16939,0.21921 0.25985,0.11368 0.43036,0.29233 0.51156,0.53593 0.0974,0.22737 0.14607,0.55232 0.14607,0.97456 v 10.71849 c 0,0.81201 -0.12189,1.3561 -0.36549,1.63218 -0.22736,0.29233 -0.66584,0.4547 -1.31546,0.48718 -0.0812,0.22736 -0.12169,0.57652 -0.12169,1.04749 0.63337,-0.0487 1.70526,-0.0731 3.21561,-0.0731 1.29922,0 2.32228,0.0244 3.06933,0.0731 0,-0.47097 -0.0405,-0.82013 -0.12169,-1.04749 -0.55217,-0.0325 -0.98272,-0.12181 -1.29128,-0.26797 -0.29233,-0.12992 -0.51147,-0.38162 -0.65763,-0.75514 -0.14616,-0.35729 -0.21921,-0.88509 -0.21921,-1.58343 v -2.43608 c 0.6821,0.22736 1.35599,0.3411 2.02184,0.3411 1.18554,0 2.24116,-0.27611 3.16685,-0.82828 0.9257,-0.56841 1.64029,-1.33977 2.14374,-2.31419 0.50345,-0.97441 0.75514,-2.06258 0.75514,-3.26436 0,-1.73771 -0.39778,-3.03688 -1.19356,-3.89761 -0.77953,-0.86074 -1.90025,-1.29108 -3.36188,-1.29108 -0.74705,0 -1.42909,0.19472 -2.04622,0.58448 -0.60089,0.37353 -1.03123,0.77966 -1.29108,1.21815 -0.22736,0.37352 -0.41415,0.71454 -0.56031,1.02311 0.12992,-0.43849 0.21924,-0.77137 0.26796,-0.99873 0.065,-0.2436 0.0975,-0.4953 0.0975,-0.75514 0,-0.60089 -0.17865,-0.95819 -0.53593,-1.07187 z m 13.94055,0 c -0.37353,0.19488 -0.88506,0.37353 -1.53467,0.53593 -0.64961,0.1624 -1.22604,0.25987 -1.72949,0.29235 -0.14616,0.22737 -0.21942,0.52769 -0.21942,0.90121 0.51969,0.0162 0.90955,0.0893 1.16939,0.21921 0.25985,0.11368 0.43036,0.29233 0.51156,0.53593 0.0974,0.22737 0.14607,0.55232 0.14607,0.97456 v 4.82321 c 0,0.81201 -0.12168,1.36423 -0.36528,1.65656 -0.22736,0.27609 -0.66585,0.43032 -1.31546,0.4628 -0.0812,0.22736 -0.1219,0.57652 -0.1219,1.04749 0.63338,-0.0487 1.70527,-0.0729 3.21561,-0.0729 1.29923,0 2.32228,0.0242 3.06933,0.0729 0,-0.47097 -0.0405,-0.82013 -0.12169,-1.04749 -0.55217,-0.0325 -0.98251,-0.11367 -1.29107,-0.24359 -0.29233,-0.14617 -0.51168,-0.39786 -0.65784,-0.75514 -0.14616,-0.37353 -0.21921,-0.90948 -0.21921,-1.60781 v -2.33857 c 0,-0.60089 0.10561,-1.16939 0.31673,-1.70532 0.22737,-0.53593 0.50348,-0.95813 0.82828,-1.2667 0.32481,-0.3248 0.63327,-0.48717 0.92559,-0.48717 0.35729,0 0.6334,0.13816 0.82829,0.41424 0.21112,0.25985 0.333,0.7551 0.36548,1.48591 0.48721,0 0.95011,-0.073 1.3886,-0.21921 0,-1.1693 0.0568,-2.12745 0.17045,-2.8745 -0.50345,-0.38977 -1.06381,-0.58469 -1.68095,-0.58469 -1.13682,0 -2.11938,0.65762 -2.94764,1.97308 -0.11368,0.1624 -0.21907,0.38989 -0.31652,0.68221 -0.0974,0.29233 -0.16255,0.48725 -0.19503,0.58469 0.0162,-0.0812 0.0732,-0.35731 0.17065,-0.82828 0.0974,-0.48721 0.14607,-1.00687 0.14607,-1.55904 0,-0.60089 -0.17865,-0.95819 -0.53593,-1.07187 z m 10.22943,0 c -0.27608,0.19488 -0.78761,0.38167 -1.53466,0.56031 -0.74706,0.17865 -1.32349,0.26797 -1.7295,0.26797 -0.14616,0.22737 -0.2192,0.52769 -0.2192,0.90121 0.53593,0 0.93371,0.0649 1.19356,0.19483 0.25984,0.11368 0.43035,0.29233 0.51155,0.53593 0.0812,0.24361 0.1219,0.5767 0.1219,0.99894 v 4.82321 c 0,0.81201 -0.12188,1.37238 -0.36549,1.68094 -0.22736,0.29232 -0.66584,0.43842 -1.31545,0.43842 -0.0812,0.25984 -0.1219,0.609 -0.1219,1.04749 0.81201,-0.0487 1.74595,-0.0729 2.80157,-0.0729 0.99065,0 1.90811,0.0242 2.7526,0.0729 0,-0.42225 -0.0405,-0.77141 -0.12169,-1.04749 -0.53593,0 -0.9095,-0.1461 -1.12063,-0.43842 -0.21112,-0.30856 -0.31672,-0.86893 -0.31672,-1.68094 v -7.30805 c 0,-0.53593 -0.17865,-0.86067 -0.53594,-0.97435 z m 7.32722,0 c -0.37353,0.19488 -0.88505,0.37353 -1.53466,0.53593 -0.64962,0.1624 -1.22626,0.25966 -1.72971,0.29214 -0.14616,0.22737 -0.2192,0.5279 -0.2192,0.90142 0.51968,0.0162 0.90954,0.0893 1.16938,0.21921 0.25985,0.11368 0.43036,0.29233 0.51156,0.53593 0.0974,0.22737 0.14607,0.55232 0.14607,0.97456 v 4.82321 c 0,0.81201 -0.12167,1.37238 -0.36528,1.68094 -0.2436,0.29232 -0.68209,0.43842 -1.31546,0.43842 -0.0812,0.22736 -0.12189,0.57652 -0.12189,1.04749 0.69833,-0.0487 1.66462,-0.0729 2.89888,-0.0729 0.56841,0 1.53469,0.0242 2.89888,0.0729 0,-0.45473 -0.0405,-0.80389 -0.12169,-1.04749 -0.63337,0 -1.07185,-0.1461 -1.31546,-0.43842 -0.2436,-0.30856 -0.36548,-0.86893 -0.36548,-1.68094 v -2.60654 c 0,-0.92569 0.13001,-1.69705 0.38986,-2.31418 0.27608,-0.61713 0.62524,-1.06376 1.04749,-1.33984 0.42225,-0.27609 0.86073,-0.41404 1.31546,-0.41404 0.71457,0 1.26659,0.22728 1.65635,0.68201 0.40601,0.45472 0.60908,1.21795 0.60908,2.2898 v 3.70279 c 0,0.79577 -0.12982,1.348 -0.38966,1.65656 -0.25985,0.30856 -0.6904,0.4628 -1.29129,0.4628 -0.0812,0.22736 -0.12169,0.57652 -0.12169,1.04749 0.21113,0 0.3735,-0.008 0.48718,-0.0244 0.94193,-0.0325 1.74585,-0.0486 2.4117,-0.0486 1.07186,0 1.95696,0.0242 2.6553,0.0729 0,-0.45473 -0.0407,-0.80389 -0.1219,-1.04749 -0.50345,0 -0.86868,-0.1461 -1.09604,-0.43842 -0.22737,-0.30856 -0.34111,-0.86893 -0.34111,-1.68094 v -4.18996 c 0,-1.38043 -0.32495,-2.3872 -0.97456,-3.02057 -0.64961,-0.63337 -1.48587,-0.95018 -2.50901,-0.95018 -0.77953,0 -1.48599,0.17865 -2.11936,0.53593 -0.61713,0.35729 -1.08817,0.76342 -1.41298,1.21815 -0.0974,0.12992 -0.17862,0.25973 -0.24358,0.38966 -0.0487,0.11368 -0.0892,0.19486 -0.12169,0.24358 0.11368,-0.43848 0.17045,-0.91745 0.17045,-1.43714 0,-0.60089 -0.17865,-0.95819 -0.53594,-1.07187 z m 15.97219,0 c -1.39667,0 -2.4767,0.38151 -3.23999,1.1448 -0.76329,0.76329 -1.14501,1.72958 -1.14501,2.89888 0,0.66585 0.13002,1.26691 0.38987,1.80284 0.27608,0.51969 0.65759,0.95003 1.1448,1.29108 -0.86074,0.82825 -1.29108,1.68893 -1.29108,2.58215 0,0.48721 0.0812,0.87686 0.24359,1.16918 0.17864,0.27609 0.48731,0.48729 0.9258,0.63345 -1.20178,0.55217 -1.80264,1.42914 -1.80264,2.63092 0,1.08809 0.34102,1.90829 1.02311,2.46046 0.6821,0.55217 1.75399,0.82828 3.21561,0.82828 1.12058,0 2.14363,-0.25169 3.06933,-0.75514 0.9257,-0.48721 1.64843,-1.11248 2.16812,-1.87577 0.53593,-0.76329 0.8039,-1.51858 0.8039,-2.26564 0,-0.66584 -0.1463,-1.19365 -0.43862,-1.58342 -0.27609,-0.38977 -0.73064,-0.67402 -1.36401,-0.85266 -0.63337,-0.17864 -1.5024,-0.26797 -2.60674,-0.26797 -1.0881,0 -1.8676,-0.0242 -2.33857,-0.0729 -0.47097,-0.0487 -0.78757,-0.13804 -0.94997,-0.26797 -0.1624,-0.14616 -0.24359,-0.37364 -0.24359,-0.68221 0,-0.35728 0.20286,-0.73879 0.60887,-1.1448 0.56841,0.21113 1.19367,0.31652 1.87577,0.31652 1.38042,0 2.46045,-0.38151 3.23998,-1.1448 0.77954,-0.77953 1.16939,-1.7621 1.16939,-2.94764 0,-0.38977 -0.0975,-0.82011 -0.29235,-1.29108 -0.17864,-0.47097 -0.45475,-0.89317 -0.82828,-1.2667 0.82826,0.0812 1.6159,0.21102 2.36295,0.38966 0,-0.61713 -0.0568,-1.12052 -0.17045,-1.51028 h -3.99513 c -0.43849,-0.14617 -0.95001,-0.21921 -1.53466,-0.21921 z m -63.63224,0.17045 c 0,0.406 0.057,0.73074 0.17066,0.97435 0.25984,0.0325 0.47898,0.0976 0.65762,0.19503 0.17865,0.0974 0.38171,0.28403 0.60908,0.56011 0.2436,0.27609 0.61718,0.74713 1.12063,1.41298 0.61713,0.81201 1.23426,1.66456 1.85139,2.55777 l -1.70532,2.36316 c -0.58466,0.82825 -1.07197,1.38841 -1.46174,1.68073 -0.38977,0.29233 -0.81197,0.4547 -1.2667,0.48718 -0.0974,0.21112 -0.14607,0.55214 -0.14607,1.02311 0.66586,-0.0325 1.33975,-0.0486 2.02184,-0.0486 1.10434,0 1.9571,0.0161 2.55799,0.0486 0,-0.43849 -0.0488,-0.77951 -0.14628,-1.02311 -0.56841,0 -0.85266,-0.211 -0.85266,-0.63325 0,-0.34104 0.2112,-0.82836 0.63345,-1.46173 l 1.02311,-1.48591 1.3886,2.0706 c 0.29232,0.43849 0.43841,0.76323 0.43841,0.97435 0,0.17864 -0.0893,0.30866 -0.26796,0.38987 -0.17865,0.0812 -0.44662,0.12983 -0.80391,0.14607 -0.065,0.19488 -0.0973,0.5359 -0.0973,1.02311 0.63338,-0.0325 1.56711,-0.0486 2.80137,-0.0486 1.03938,0 1.89192,0.0161 2.55777,0.0486 0,-0.47097 -0.0405,-0.81199 -0.12169,-1.02311 -0.30856,-0.0162 -0.60096,-0.1542 -0.87704,-0.41404 -0.27608,-0.27609 -0.68201,-0.80389 -1.21794,-1.58343 l -2.19249,-3.04515 1.80263,-2.5334 c 0.48721,-0.68209 0.86078,-1.12057 1.12063,-1.31546 0.27608,-0.21112 0.60896,-0.333 0.99873,-0.36548 0.0974,-0.35729 0.14627,-0.68203 0.14627,-0.97435 -0.68209,0.0325 -1.36433,0.0488 -2.04642,0.0488 -0.63338,0 -1.3559,-0.0163 -2.16791,-0.0488 0,0.42224 0.0486,0.74699 0.14607,0.97435 0.29232,0.0162 0.50353,0.0651 0.63345,0.14628 0.14616,0.0812 0.21921,0.20287 0.21921,0.36527 0,0.27609 -0.19493,0.70664 -0.5847,1.29129 l -0.97435,1.4859 c -0.51969,-0.73081 -0.88512,-1.22606 -1.09625,-1.4859 -0.43849,-0.61713 -0.65783,-1.04768 -0.65783,-1.29129 0,-0.17864 0.0812,-0.30031 0.24359,-0.36527 0.17864,-0.0812 0.43848,-0.13005 0.77952,-0.14628 0.0812,-0.45473 0.1219,-0.77947 0.1219,-0.97435 -0.55217,0.0325 -1.4859,0.0488 -2.80136,0.0488 -0.7633,0 -1.61605,-0.0163 -2.55799,-0.0488 z m 63.38844,0.92559 c 0.74705,0 1.33183,0.30867 1.75408,0.9258 0.43849,0.60089 0.65763,1.34804 0.65762,2.24126 0,0.82825 -0.1705,1.46959 -0.51155,1.92432 -0.3248,0.45473 -0.76329,0.68221 -1.31546,0.68221 -0.77953,0 -1.38852,-0.26797 -1.82701,-0.8039 -0.43849,-0.55217 -0.65762,-1.33167 -0.65762,-2.33857 0,-0.73081 0.16237,-1.34794 0.48717,-1.85139 0.32481,-0.51969 0.79564,-0.77973 1.41277,-0.77973 z m -70.05366,0.0731 c 0.69834,0 1.24242,0.33288 1.63219,0.99873 0.406,0.64961 0.60907,1.51864 0.60907,2.60674 h -4.67734 c 0.065,-1.29922 0.32479,-2.22502 0.77952,-2.77719 0.45473,-0.55217 1.00696,-0.82828 1.65656,-0.82828 z m 26.31164,0.36548 c 0.79578,0 1.44526,0.38172 1.94871,1.14501 0.51968,0.76329 0.77952,1.77821 0.77952,3.04495 0,1.20178 -0.18679,2.15993 -0.56032,2.8745 -0.37352,0.69833 -0.82808,1.18565 -1.364,1.46174 -0.53593,0.27608 -1.07188,0.41403 -1.60781,0.41403 -0.45472,0 -0.85272,-0.073 -1.19377,-0.2192 -0.3248,-0.14617 -0.6414,-0.35737 -0.94997,-0.63346 v -3.43481 c 0,-1.57531 0.28425,-2.74446 0.85266,-3.50775 0.58465,-0.76329 1.28297,-1.14501 2.09498,-1.14501 z m -48.90049,0.22025 c -0.64961,0 -1.20183,0.27591 -1.65656,0.82808 -0.45473,0.55216 -0.71456,1.47797 -0.77952,2.77719 h 3.37188 v -3.35272 c -0.27304,-0.16822 -0.58479,-0.25255 -0.9358,-0.25255 z m 1.99017,4.67005 5.78589,5.7861 a 8.1826957,8.1826957 0 0 0 2.39691,-5.7861 z m -0.9979,0.0565 c -1.31102,0.02 -2.45899,0.0512 -3.40397,0.0967 0.0812,1.2505 0.38987,2.27376 0.9258,3.06954 0.55217,0.77953 1.42099,1.16938 2.60653,1.16938 0.55217,0 1.08812,-0.12188 1.60781,-0.36548 0.48302,-0.22642 0.90903,-0.54534 1.27982,-0.95414 z m 90.04264,5.26016 c 0.48721,0.0325 0.9257,0.0488 1.31546,0.0488 1.10434,0 1.94061,0.0568 2.50902,0.17045 0.58465,0.11368 0.98264,0.28419 1.19376,0.51156 0.21113,0.2436 0.31652,0.58483 0.31652,1.02331 0,0.47097 -0.13795,0.90945 -0.41403,1.31546 -0.27609,0.40601 -0.68202,0.73075 -1.21794,0.97435 -0.51969,0.24361 -1.12075,0.36549 -1.80284,0.36549 -0.97442,0 -1.67274,-0.21121 -2.09498,-0.63346 -0.42225,-0.406 -0.63325,-1.03127 -0.63325,-1.87577 0,-0.42224 0.0568,-0.77954 0.17045,-1.07187 0.12992,-0.29232 0.34927,-0.56843 0.65783,-0.82828 z"
       id="path856-6"
       inkscape:connector-curvature="0" />
  </g>
</svg>
