<?xml version="1.0" standalone="no"?>
<!DOCTYPE svg PUBLIC "-//W3C//DTD SVG 20010904//EN"
 "http://www.w3.org/TR/2001/REC-SVG-20010904/DTD/svg10.dtd">
<svg version="1.0" xmlns="http://www.w3.org/2000/svg"
 width="700.000000pt" height="700.000000pt" viewBox="0 0 700.000000 700.000000"
 preserveAspectRatio="xMidYMid meet">
<metadata>
Created by potrace 1.11, written by Peter Selinger 2001-2013
</metadata>
<g transform="translate(0.000000,700.000000) scale(0.100000,-0.100000)"
fill="#000000" stroke="none">
<path d="M3718 6994 c-4 -8 -4 -3259 1 -3274 0 -3 740 -6 1642 -6 l1642 0 -7
151 c-3 82 -8 161 -10 175 -3 14 -7 50 -11 80 -49 447 -224 940 -480 1349
-318 508 -803 941 -1355 1208 -219 106 -587 230 -764 257 -21 4 -41 8 -45 10
-3 2 -31 7 -61 11 -30 4 -57 8 -60 10 -3 2 -39 6 -80 10 -41 4 -78 9 -81 11
-14 8 -327 16 -331 8z"/>
<path d="M3070 6569 c-173 -14 -296 -31 -465 -64 -376 -73 -800 -254 -1160
-495 -212 -142 -508 -404 -632 -558 -21 -26 -45 -54 -54 -62 -32 -31 -170
-220 -237 -326 -290 -457 -455 -936 -509 -1479 -10 -101 -10 -495 0 -595 18
-174 49 -348 101 -561 35 -140 130 -396 212 -565 93 -195 238 -430 352 -574
24 -30 50 -64 59 -75 83 -105 254 -284 378 -394 109 -97 426 -331 449 -331 3
0 24 -13 48 -29 68 -46 329 -175 446 -221 264 -104 562 -184 767 -206 28 -3
59 -7 71 -9 124 -26 644 -27 779 -1 11 2 47 7 80 11 32 4 68 9 80 11 11 2 32
6 48 9 185 34 472 114 574 161 17 8 34 14 38 14 3 0 25 8 48 19 23 10 67 29
97 42 73 31 301 152 370 196 115 74 138 90 245 169 141 105 362 299 353 310
-28 32 -814 814 -818 814 -3 0 -16 -14 -30 -32 -206 -261 -503 -493 -770 -603
-115 -47 -271 -95 -359 -110 -19 -3 -37 -7 -40 -9 -7 -4 -52 -12 -126 -21 -27
-4 -61 -8 -75 -11 -14 -2 -77 -7 -140 -11 -242 -14 -453 -5 -635 28 -33 6 -73
13 -88 16 -23 4 -105 26 -242 67 -5 1 -26 9 -46 18 -20 9 -47 19 -60 23 -54
16 -240 120 -324 180 -457 326 -759 871 -850 1535 -3 25 -8 56 -10 70 -23 147
-24 627 -1 746 2 12 7 45 11 74 4 29 9 62 11 74 58 306 133 529 251 748 54
101 164 273 200 313 10 11 40 46 66 78 219 260 551 489 847 585 84 27 214 60
265 67 23 3 52 7 65 10 91 18 322 23 483 12 l97 -7 0 475 c0 261 -3 476 -7
476 -26 4 -149 3 -213 -2z"/>
<path d="M2780 5153 c-337 -53 -601 -308 -729 -703 -50 -154 -89 -368 -107
-580 -3 -41 -7 -92 -9 -112 -2 -24 1 -38 8 -39 7 -1 312 -2 680 -3 l667 -1 -2
675 -3 675 -60 30 c-123 62 -284 83 -445 58z"/>
<path d="M3720 3285 c0 -9 2310 -2315 2319 -2315 14 0 168 173 284 320 113
142 264 390 355 580 51 109 142 331 142 350 0 6 5 18 10 28 35 59 127 473 145
647 3 33 8 70 10 81 3 12 7 87 11 168 l6 146 -1641 0 c-903 0 -1641 -2 -1641
-5z"/>
<path d="M3137 3264 c-1 -1 -148 -5 -327 -9 -365 -8 -411 -9 -665 -20 -99 -4
-185 -8 -192 -8 -8 0 -11 -11 -8 -31 2 -17 7 -62 10 -101 7 -82 12 -120 25
-195 5 -30 12 -71 15 -90 22 -131 90 -359 154 -511 44 -106 147 -284 209 -362
184 -230 476 -373 827 -405 329 -29 644 34 905 182 136 77 116 63 221 145 41
32 106 88 144 125 l69 67 -119 120 c-66 66 -339 339 -607 607 l-488 487 -86 0
c-47 0 -86 -1 -87 -1z"/>
</g>
</svg>
